<svg width="156" height="40" viewBox="0 0 156 40" fill="none" xmlns="http://www.w3.org/2000/svg">
<path d="M31.647 8.43938C31.0612 7.85354 30.1031 7.85354 29.5173 8.43938L26.4642 11.4948C25.2133 10.6627 23.7779 10.2497 22.3364 10.2497C20.4174 10.2497 18.4736 10.9822 17.0336 12.4469L12.5336 16.9472C9.96726 19.5106 9.65093 23.4747 11.5786 26.384L8.52581 29.4394C7.93997 30.0253 7.93997 30.9745 8.52581 31.5606C8.81885 31.8536 9.20261 32 9.58637 32C9.97038 32 10.3539 31.8536 10.6469 31.5606L13.6998 28.5051C14.9509 29.3372 16.395 29.7502 17.8364 29.7502C19.7305 29.7502 21.6743 29.0178 23.1392 27.553L27.6306 23.053C30.197 20.4893 30.5133 16.5252 28.5853 13.616L31.647 10.5605C32.2329 9.97466 32.2329 9.02522 31.647 8.43938ZM26.8276 17.75C26.8276 18.9512 26.3589 20.0821 25.5095 20.9317L21.0181 25.4317C20.1656 26.2813 19.0129 26.75 17.8364 26.75C17.1567 26.75 16.5063 26.5832 15.9087 26.2988L18.1223 24.0605C18.7081 23.4747 18.7081 22.5255 18.1223 21.9394C17.5611 21.3536 16.6119 21.3536 16.0261 21.9394L13.7878 24.1777C13.5008 23.5829 13.3366 22.9325 13.3366 22.25C13.3366 21.0488 13.8054 19.9179 14.655 19.0683L19.13 14.5683C19.9796 13.7187 21.1352 13.25 22.3364 13.25C23.0161 13.25 23.6634 13.4168 24.2612 13.7012L21.9791 15.9862C21.3932 16.572 21.3932 17.5212 21.9791 18.1073C22.2721 18.4004 22.6556 18.5468 23.0396 18.5468C23.4205 18.5468 23.8043 18.4004 24.0971 18.1073L26.3766 15.8223C26.6634 16.4168 26.8276 17.0674 26.8276 17.75Z" fill="#0065FE"/>
<path d="M40.0864 8V32" stroke="#0065FE" stroke-width="2" stroke-linecap="round"/>
<path d="M55.3824 27.336C53.7184 27.336 52.3184 26.968 51.1824 26.232C50.0464 25.48 49.2464 24.464 48.7824 23.184L51.6144 21.528C52.2704 23.24 53.5584 24.096 55.4784 24.096C56.4064 24.096 57.0864 23.928 57.5184 23.592C57.9504 23.256 58.1664 22.832 58.1664 22.32C58.1664 21.728 57.9024 21.272 57.3744 20.952C56.8464 20.616 55.9024 20.256 54.5424 19.872C53.7904 19.648 53.1504 19.424 52.6224 19.2C52.1104 18.976 51.5904 18.68 51.0624 18.312C50.5504 17.928 50.1584 17.448 49.8864 16.872C49.6144 16.296 49.4784 15.624 49.4784 14.856C49.4784 13.336 50.0144 12.128 51.0864 11.232C52.1744 10.32 53.4784 9.864 54.9984 9.864C56.3584 9.864 57.5504 10.2 58.5744 10.872C59.6144 11.528 60.4224 12.448 60.9984 13.632L58.2144 15.24C57.5424 13.8 56.4704 13.08 54.9984 13.08C54.3104 13.08 53.7664 13.24 53.3664 13.56C52.9824 13.864 52.7904 14.264 52.7904 14.76C52.7904 15.288 53.0064 15.72 53.4384 16.056C53.8864 16.376 54.7344 16.728 55.9824 17.112C56.4944 17.272 56.8784 17.4 57.1344 17.496C57.4064 17.576 57.7664 17.712 58.2144 17.904C58.6784 18.08 59.0304 18.248 59.2704 18.408C59.5264 18.568 59.8144 18.784 60.1344 19.056C60.4544 19.328 60.6944 19.608 60.8544 19.896C61.0304 20.184 61.1744 20.536 61.2864 20.952C61.4144 21.352 61.4784 21.792 61.4784 22.272C61.4784 23.824 60.9104 25.056 59.7744 25.968C58.6544 26.88 57.1904 27.336 55.3824 27.336ZM71.4894 27.336C68.9614 27.336 66.8734 26.496 65.2254 24.816C63.5774 23.136 62.7534 21.064 62.7534 18.6C62.7534 16.12 63.5774 14.048 65.2254 12.384C66.8734 10.704 68.9614 9.864 71.4894 9.864C73.0094 9.864 74.4094 10.224 75.6894 10.944C76.9854 11.648 77.9934 12.608 78.7134 13.824L75.8574 15.48C75.4414 14.728 74.8494 14.144 74.0814 13.728C73.3134 13.296 72.4494 13.08 71.4894 13.08C69.8574 13.08 68.5374 13.592 67.5294 14.616C66.5374 15.64 66.0414 16.968 66.0414 18.6C66.0414 20.216 66.5374 21.536 67.5294 22.56C68.5374 23.584 69.8574 24.096 71.4894 24.096C72.4494 24.096 73.3134 23.888 74.0814 23.472C74.8654 23.04 75.4574 22.456 75.8574 21.72L78.7134 23.376C77.9934 24.592 76.9934 25.56 75.7134 26.28C74.4334 26.984 73.0254 27.336 71.4894 27.336ZM80.748 10.2H84.06V27H80.748V10.2ZM92.6481 27.336C90.9841 27.336 89.5841 26.968 88.4481 26.232C87.3121 25.48 86.5121 24.464 86.0481 23.184L88.8801 21.528C89.5361 23.24 90.8241 24.096 92.7441 24.096C93.6721 24.096 94.3521 23.928 94.7841 23.592C95.2161 23.256 95.4321 22.832 95.4321 22.32C95.4321 21.728 95.1681 21.272 94.6401 20.952C94.1121 20.616 93.1681 20.256 91.8081 19.872C91.0561 19.648 90.4161 19.424 89.8881 19.2C89.3761 18.976 88.8561 18.68 88.3281 18.312C87.8161 17.928 87.4241 17.448 87.1521 16.872C86.8801 16.296 86.7441 15.624 86.7441 14.856C86.7441 13.336 87.2801 12.128 88.3521 11.232C89.4401 10.32 90.7441 9.864 92.2641 9.864C93.6241 9.864 94.8161 10.2 95.8401 10.872C96.8801 11.528 97.6881 12.448 98.2641 13.632L95.4801 15.24C94.8081 13.8 93.7361 13.08 92.2641 13.08C91.5761 13.08 91.0321 13.24 90.6321 13.56C90.2481 13.864 90.0561 14.264 90.0561 14.76C90.0561 15.288 90.2721 15.72 90.7041 16.056C91.1521 16.376 92.0001 16.728 93.2481 17.112C93.7601 17.272 94.1441 17.4 94.4001 17.496C94.6721 17.576 95.0321 17.712 95.4801 17.904C95.9441 18.08 96.2961 18.248 96.5361 18.408C96.7921 18.568 97.0801 18.784 97.4001 19.056C97.7201 19.328 97.9601 19.608 98.1201 19.896C98.2961 20.184 98.4401 20.536 98.5521 20.952C98.6801 21.352 98.7441 21.792 98.7441 22.272C98.7441 23.824 98.1761 25.056 97.0401 25.968C95.9201 26.88 94.4561 27.336 92.6481 27.336ZM106.125 27.336C104.461 27.336 103.061 26.968 101.925 26.232C100.789 25.48 99.9886 24.464 99.5246 23.184L102.357 21.528C103.013 23.24 104.301 24.096 106.221 24.096C107.149 24.096 107.829 23.928 108.261 23.592C108.693 23.256 108.909 22.832 108.909 22.32C108.909 21.728 108.645 21.272 108.117 20.952C107.589 20.616 106.645 20.256 105.285 19.872C104.533 19.648 103.893 19.424 103.365 19.2C102.853 18.976 102.333 18.68 101.805 18.312C101.293 17.928 100.901 17.448 100.629 16.872C100.357 16.296 100.221 15.624 100.221 14.856C100.221 13.336 100.757 12.128 101.829 11.232C102.917 10.32 104.221 9.864 105.741 9.864C107.101 9.864 108.293 10.2 109.317 10.872C110.357 11.528 111.165 12.448 111.741 13.632L108.957 15.24C108.285 13.8 107.213 13.08 105.741 13.08C105.053 13.08 104.509 13.24 104.109 13.56C103.725 13.864 103.533 14.264 103.533 14.76C103.533 15.288 103.749 15.72 104.181 16.056C104.629 16.376 105.477 16.728 106.725 17.112C107.237 17.272 107.621 17.4 107.877 17.496C108.149 17.576 108.509 17.712 108.957 17.904C109.421 18.08 109.773 18.248 110.013 18.408C110.269 18.568 110.557 18.784 110.877 19.056C111.197 19.328 111.437 19.608 111.597 19.896C111.773 20.184 111.917 20.536 112.029 20.952C112.157 21.352 112.221 21.792 112.221 22.272C112.221 23.824 111.653 25.056 110.517 25.968C109.397 26.88 107.933 27.336 106.125 27.336ZM128.4 24.816C126.704 26.496 124.64 27.336 122.208 27.336C119.776 27.336 117.712 26.496 116.016 24.816C114.336 23.12 113.496 21.048 113.496 18.6C113.496 16.152 114.336 14.088 116.016 12.408C117.712 10.712 119.776 9.864 122.208 9.864C124.64 9.864 126.704 10.712 128.4 12.408C130.096 14.088 130.944 16.152 130.944 18.6C130.944 21.048 130.096 23.12 128.4 24.816ZM118.344 22.56C119.384 23.584 120.672 24.096 122.208 24.096C123.744 24.096 125.032 23.584 126.072 22.56C127.112 21.52 127.632 20.2 127.632 18.6C127.632 17 127.112 15.68 126.072 14.64C125.032 13.6 123.744 13.08 122.208 13.08C120.672 13.08 119.384 13.6 118.344 14.64C117.304 15.68 116.784 17 116.784 18.6C116.784 20.2 117.304 21.52 118.344 22.56ZM142.487 27L139.103 21.168H136.583V27H133.271V10.2H139.991C141.543 10.2 142.863 10.744 143.951 11.832C145.039 12.92 145.583 14.232 145.583 15.768C145.583 16.808 145.287 17.776 144.695 18.672C144.103 19.552 143.319 20.216 142.343 20.664L146.063 27H142.487ZM136.583 13.296V18.264H139.991C140.615 18.264 141.151 18.024 141.599 17.544C142.047 17.048 142.271 16.456 142.271 15.768C142.271 15.08 142.047 14.496 141.599 14.016C141.151 13.536 140.615 13.296 139.991 13.296H136.583Z" fill="#0065FE"/>
</svg>
